<svg width="1913" height="207" viewBox="0 0 1913 207" fill="none" xmlns="http://www.w3.org/2000/svg">
<rect width="1913" height="207" fill="#0069A9"/>
<g clip-path="url(#clip0_772_34001)">
<path d="M28 25.168L-34 70.6851L-10.5 146.819H71.1202L88 63.3512L28 25.168Z" fill="#0176B6" fill-opacity="0.5"/>
<path d="M28.7869 35.1307L-20 70.9475L-1.5082 130.856H62.7176L76 65.1765L28.7869 35.1307Z" fill="#0176B6" fill-opacity="0.5"/>
<path d="M28.7725 47L-12 76.933L3.45408 127H57.1292L68.2297 72.11L28.7725 47Z" fill="#0176B6" fill-opacity="0.5"/>
<path d="M590.597 -64.4452L555.145 3.81135L609.913 61.6819L683.105 25.5584L661.3 -56.76L590.597 -64.4452Z" fill="#0176B6" fill-opacity="0.5"/>
<path d="M595.661 -53.7456L567.107 1.22932L611.218 47.8392L670.168 18.7448L652.606 -47.5559L595.661 -53.7456Z" fill="#0176B6" fill-opacity="0.5"/>
<path d="M600.363 -43.81L578.215 -1.16863L612.43 34.9844L658.155 12.4172L644.533 -39.0089L600.363 -43.81Z" fill="#0176B6" fill-opacity="0.5"/>
<path d="M316.093 -31.7025L301.752 -4.09056L323.907 19.32L353.516 4.70683L344.695 -28.5936L316.093 -31.7025Z" fill="#0176B6" fill-opacity="0.5"/>
<path d="M340.597 129.555L305.145 197.811L359.913 255.682L433.105 219.558L411.3 137.24L340.597 129.555Z" fill="#0176B6" fill-opacity="0.5"/>
<path d="M987.048 80.9422L944.031 144.702L991.831 208.45L1068.67 180.924L1056.41 96.6533L987.048 80.9422Z" fill="#0176B6" fill-opacity="0.5"/>
<path d="M1017.05 70.9422L974.031 134.702L1021.83 198.45L1098.67 170.924L1086.41 86.6533L1017.05 70.9422Z" fill="#0176B6" fill-opacity="0.5"/>
<path d="M1121.37 -50.7648L1078.35 12.9953L1126.15 76.7431L1202.99 49.2165L1190.73 -35.0538L1121.37 -50.7648Z" fill="#0176B6" fill-opacity="0.5"/>
<path d="M1132.37 -70.7648L1089.35 -7.00465L1137.15 56.7431L1213.99 29.2165L1201.73 -55.0538L1132.37 -70.7648Z" fill="#0176B6" fill-opacity="0.5"/>
<rect x="48.2124" y="35" width="10" height="10" rx="1" transform="rotate(24.4666 48.2124 35)" fill="#E3E485"/>
<rect x="475.142" y="146" width="10" height="10" rx="1" transform="rotate(24.4666 475.142 146)" fill="#FFF9CC"/>
<rect x="489.077" y="144" width="4.09398" height="4.09398" rx="0.409398" transform="rotate(1.07177 489.077 144)" fill="#FFF9CC"/>
<g opacity="0.4">
<path d="M518.166 183.544L514.462 174.956L516.17 174.219L519.138 181.099L532.87 175.176L533.607 176.885L518.166 183.544ZM532.265 170.716L530.537 170.03L533.547 162.455C533.652 162.189 533.639 161.901 533.505 161.592C533.372 161.282 533.172 161.075 532.906 160.969L528.786 159.332L527.255 163.186L513.434 157.695L514.965 153.841L510.846 152.204C510.58 152.098 510.292 152.112 509.983 152.246C509.673 152.379 509.466 152.579 509.36 152.845L500.595 174.905C500.489 175.171 500.503 175.459 500.637 175.768C500.77 176.077 500.97 176.285 501.236 176.391L510.538 180.087L509.852 181.814L500.549 178.118C499.776 177.811 499.226 177.278 498.898 176.518C498.57 175.758 498.56 174.991 498.867 174.218L507.632 152.158C507.94 151.385 508.473 150.835 509.233 150.507C509.993 150.179 510.759 150.169 511.532 150.476L519.542 153.659C519.972 153.048 520.557 152.623 521.295 152.384C522.034 152.145 522.773 152.173 523.513 152.466C524.266 152.766 524.827 153.255 525.197 153.934C525.567 154.614 525.699 155.323 525.592 156.063L533.592 159.241C534.365 159.548 534.916 160.082 535.244 160.842C535.571 161.602 535.582 162.368 535.274 163.141L532.265 170.716ZM521.717 156.985C522.118 157.144 522.504 157.144 522.874 156.985C523.244 156.825 523.508 156.545 523.667 156.144C523.827 155.743 523.827 155.358 523.667 154.988C523.507 154.618 523.227 154.354 522.826 154.195C522.425 154.035 522.04 154.035 521.67 154.195C521.3 154.354 521.036 154.634 520.876 155.035C520.717 155.436 520.717 155.822 520.877 156.191C521.036 156.561 521.317 156.826 521.717 156.985Z" fill="#FAFDFF"/>
</g>
<g opacity="0.4">
<circle cx="603" cy="158" r="2" fill="white"/>
<circle cx="610.5" cy="158" r="2" fill="white"/>
</g>
<g opacity="0.4">
<mask id="mask0_772_34001" style="mask-type:alpha" maskUnits="userSpaceOnUse" x="609" y="130" width="36" height="36">
<rect x="609" y="130" width="36" height="36" fill="#D9D9D9"/>
</mask>
<g mask="url(#mask0_772_34001)">
<path d="M619.5 161.5V155.858C618.075 154.558 616.969 153.097 616.181 151.474C615.394 149.852 615 148.187 615 146.479C615 143.152 616.167 140.323 618.5 137.994C620.833 135.665 623.667 134.5 627 134.5C629.702 134.5 632.144 135.323 634.326 136.968C636.507 138.613 637.922 140.738 638.57 143.341L640.125 149.498C640.225 149.878 640.154 150.223 639.912 150.534C639.669 150.845 639.346 151 638.942 151H636V156.077C636 156.743 635.763 157.314 635.288 157.788C634.814 158.263 634.243 158.5 633.577 158.5H630V161.5H628.5V157H633.577C633.846 157 634.067 156.914 634.241 156.741C634.414 156.567 634.5 156.346 634.5 156.077V149.5H638.55L637.125 143.688C636.55 141.393 635.315 139.538 633.421 138.123C631.527 136.708 629.387 136 627 136C624.1 136 621.625 137.015 619.575 139.046C617.525 141.076 616.5 143.546 616.5 146.454C616.5 147.949 616.806 149.369 617.419 150.715C618.031 152.06 618.9 153.256 620.025 154.303L621 155.2V161.5H619.5ZM626.711 153.712C627.021 153.712 627.281 153.607 627.492 153.397C627.703 153.187 627.808 152.927 627.808 152.616C627.808 152.306 627.703 152.046 627.493 151.835C627.283 151.625 627.023 151.519 626.712 151.519C626.402 151.519 626.142 151.624 625.931 151.834C625.721 152.044 625.615 152.304 625.615 152.614C625.615 152.925 625.72 153.185 625.93 153.396C626.14 153.606 626.4 153.712 626.711 153.712ZM626.077 149.604H627.413C627.413 149.152 627.508 148.723 627.699 148.316C627.891 147.909 628.237 147.44 628.737 146.91C629.167 146.429 629.576 145.942 629.963 145.449C630.349 144.955 630.542 144.363 630.542 143.673C630.542 142.736 630.194 141.944 629.497 141.297C628.8 140.65 627.909 140.327 626.824 140.327C625.997 140.327 625.24 140.547 624.552 140.988C623.865 141.428 623.349 142.014 623.005 142.747L624.202 143.292C624.454 142.781 624.818 142.371 625.294 142.062C625.77 141.753 626.28 141.599 626.824 141.599C627.489 141.599 628.051 141.792 628.51 142.178C628.969 142.564 629.198 143.062 629.198 143.673C629.198 144.236 629.028 144.72 628.686 145.123C628.345 145.525 627.971 145.939 627.566 146.364C627.065 146.87 626.692 147.386 626.446 147.911C626.2 148.436 626.077 149 626.077 149.604Z" fill="#FAFDFF"/>
</g>
<circle cx="644" cy="138" r="2" fill="white"/>
<circle cx="648" cy="138" r="2" fill="white"/>
</g>
<g opacity="0.4">
<path d="M769.361 63.6345C768.466 63.7422 767.667 63.5268 766.963 62.9885C766.259 62.4502 765.853 61.7335 765.746 60.8385L763.288 41.4115C763.181 40.5165 763.406 39.7063 763.965 38.981C764.524 38.2553 765.251 37.8475 766.146 37.7575L767.015 37.719C767.3 37.696 767.552 37.7755 767.771 37.9575C767.99 38.1398 768.1 38.3898 768.1 38.7075C768.1 38.9512 768.014 39.173 767.844 39.373C767.673 39.573 767.466 39.6845 767.223 39.7075L766.442 39.746C766.083 39.7717 765.801 39.9192 765.596 40.1885C765.391 40.4578 765.314 40.772 765.365 41.131L767.757 60.569C767.809 60.928 767.962 61.2102 768.219 61.4155C768.475 61.6205 768.783 61.6973 769.142 61.646L792.688 58.7075C792.973 58.6665 793.223 58.7293 793.438 58.896C793.654 59.0627 793.782 59.2883 793.823 59.573C793.864 59.8577 793.801 60.0993 793.634 60.298C793.468 60.4967 793.242 60.6165 792.957 60.6575L769.361 63.6345Z" fill="white"/>
<path d="M785.258 51.5285C785.697 51.5285 786.083 51.3617 786.417 51.0279C786.751 50.6938 786.918 50.3074 786.918 49.8688C786.918 49.4298 786.751 49.0435 786.417 48.7097C786.083 48.376 785.697 48.2091 785.258 48.2091C784.819 48.2091 784.433 48.376 784.099 48.7097C783.765 49.0435 783.598 49.4298 783.598 49.8688C783.598 50.3074 783.765 50.6938 784.099 51.0279C784.433 51.3617 784.819 51.5285 785.258 51.5285ZM784.318 45.5433H786.198C786.253 44.6523 786.393 43.9812 786.62 43.5302C786.846 43.0792 787.389 42.4503 788.251 41.6436C789.15 40.8258 789.777 40.0962 790.131 39.4545C790.485 38.8125 790.662 38.0759 790.662 37.2448C790.662 35.8137 790.152 34.6206 789.131 33.6654C788.111 32.7102 786.82 32.2327 785.258 32.2327C784.078 32.2327 783.029 32.5515 782.112 33.1893C781.195 33.827 780.497 34.6965 780.017 35.7976L781.742 36.5581C782.143 35.7266 782.631 35.103 783.208 34.6874C783.784 34.2718 784.468 34.064 785.258 34.064C786.272 34.064 787.113 34.3645 787.78 34.9654C788.448 35.5666 788.782 36.3427 788.782 37.2936C788.782 37.8715 788.62 38.4092 788.295 38.9066C787.971 39.404 787.414 40.003 786.623 40.7034C785.727 41.4854 785.118 42.2028 784.798 42.8558C784.478 43.5084 784.318 44.4043 784.318 45.5433ZM773.812 56.7612C772.833 56.7612 772.016 56.4335 771.361 55.778C770.705 55.1225 770.377 54.3055 770.377 53.327V30.4342C770.377 29.4557 770.705 28.6386 771.361 27.9832C772.016 27.3277 772.833 27 773.812 27H796.704C797.683 27 798.5 27.3277 799.155 27.9832C799.811 28.6386 800.139 29.4557 800.139 30.4342V53.327C800.139 54.3055 799.811 55.1225 799.155 55.778C798.5 56.4335 797.683 56.7612 796.704 56.7612H773.812ZM773.812 54.6354H796.704C797.032 54.6354 797.332 54.4992 797.604 54.2267C797.877 53.9542 798.013 53.6543 798.013 53.327V30.4342C798.013 30.1069 797.877 29.8069 797.604 29.5345C797.332 29.262 797.032 29.1258 796.704 29.1258H773.812C773.484 29.1258 773.184 29.262 772.912 29.5345C772.639 29.8069 772.503 30.1069 772.503 30.4342V53.327C772.503 53.6543 772.639 53.9542 772.912 54.2267C773.184 54.4992 773.484 54.6354 773.812 54.6354Z" fill="#FAFDFF"/>
</g>
<g opacity="0.4">
<path d="M24.231 102C23.3103 102 22.5417 101.692 21.925 101.075C21.3083 100.458 21 99.6897 21 98.769V77.231C21 76.3103 21.3083 75.5417 21.925 74.925C22.5417 74.3083 23.3103 74 24.231 74H53.769C54.6897 74 55.4583 74.3083 56.075 74.925C56.6917 75.5417 57 76.3103 57 77.231V98.769C57 99.6897 56.6917 100.458 56.075 101.075C55.4583 101.692 54.6897 102 53.769 102H45V104.385C45 104.842 44.8452 105.226 44.5355 105.536C44.2258 105.845 43.8422 106 43.3845 106H34.6155C34.1578 106 33.7742 105.845 33.4645 105.536C33.1548 105.226 33 104.842 33 104.385V102H24.231ZM24.231 100H53.769C54.077 100 54.3592 99.8718 54.6155 99.6155C54.8718 99.3592 55 99.077 55 98.769V77.231C55 76.923 54.8718 76.6408 54.6155 76.3845C54.3592 76.1282 54.077 76 53.769 76H24.231C23.923 76 23.6408 76.1282 23.3845 76.3845C23.1282 76.6408 23 76.923 23 77.231V98.769C23 99.077 23.1282 99.3592 23.3845 99.6155C23.6408 99.8718 23.923 100 24.231 100Z" fill="white"/>
<path d="M29.7828 92.7828C29.573 92.9926 29.3151 93.0978 29 93.0978C28.685 93.0978 28.4271 92.9926 28.2173 92.7828C28.0075 92.573 27.9024 92.3152 27.9024 92.0001C27.9024 91.685 28.0075 91.4272 28.2173 91.2174C28.4271 91.0076 28.685 90.9024 29 90.9024C29.3151 90.9024 29.573 91.0076 29.7828 91.2174C29.9925 91.4272 30.0977 91.685 30.0977 92.0001C30.0977 92.3152 29.9925 92.573 29.7828 92.7828ZM29.7828 84.7828C29.573 84.9926 29.3151 85.0978 29 85.0978C28.685 85.0978 28.4271 84.9926 28.2173 84.7828C28.0075 84.573 27.9024 84.3152 27.9024 84.0001C27.9024 83.685 28.0075 83.4272 28.2173 83.2174C28.4271 83.0076 28.685 82.9024 29 82.9024C29.3151 82.9024 29.573 83.0076 29.7828 83.2174C29.9925 83.4272 30.0977 83.685 30.0977 84.0001C30.0977 84.3152 29.9925 84.573 29.7828 84.7828ZM49 92.8668H34.231C33.9811 92.8668 33.7781 92.784 33.6127 92.6192C33.4474 92.4545 33.3644 92.2517 33.3644 92.0016C33.3644 91.7515 33.4474 91.5481 33.6129 91.3823C33.7783 91.2166 33.9814 91.1334 34.231 91.1334H49C49.2499 91.1334 49.453 91.2162 49.6184 91.381C49.7837 91.5457 49.8667 91.7485 49.8667 91.9986C49.8667 92.2487 49.7837 92.4521 49.6182 92.6179C49.4527 92.7836 49.2497 92.8668 49 92.8668ZM49 84.8668H34.231C33.9811 84.8668 33.7781 84.784 33.6127 84.6192C33.4474 84.4545 33.3644 84.2517 33.3644 84.0016C33.3644 83.7515 33.4474 83.5481 33.6129 83.3823C33.7784 83.2166 33.9814 83.1334 34.231 83.1334H49C49.2499 83.1334 49.453 83.2162 49.6184 83.381C49.7837 83.5457 49.8667 83.7485 49.8667 83.9986C49.8667 84.2487 49.7837 84.4521 49.6182 84.6179C49.4527 84.7836 49.2497 84.8668 49 84.8668Z" stroke="white" stroke-width="0.266667"/>
</g>
<g opacity="0.4" filter="url(#filter0_f_772_34001)">
<path d="M495.784 327.785C476.562 155.905 331.748 77.8707 250.918 212.492C170.088 347.113 135.915 318.401 93.6419 436.971C40.8 585.184 667.918 934.811 761.566 792.221C836.483 678.15 733.611 608.216 672.81 587.508C621.811 572.551 515.006 499.666 495.784 327.785Z" fill="#6DB1F8"/>
<circle cx="1279.33" cy="216.099" r="120.178" fill="#6DB1F8"/>
</g>
<g clip-path="url(#clip1_772_34001)">
<path opacity="0.4" d="M65.0291 158.101L69.4838 153.155C69.7336 152.878 69.8057 152.579 69.7002 152.256C69.5945 151.934 69.3569 151.728 68.9873 151.639L62.47 150.286C62.1576 150.218 61.8416 150.236 61.5218 150.341C61.2016 150.446 60.9313 150.62 60.7108 150.862L56.2554 155.808C56.0059 156.084 55.934 156.384 56.0395 156.706C56.1452 157.029 56.3826 157.235 56.7519 157.324L63.2699 158.677C63.5819 158.745 63.8979 158.726 64.2181 158.622C64.5379 158.517 64.8082 158.343 65.0291 158.101ZM67.0765 164.354L70.2442 160.859C70.4604 160.627 70.604 160.346 70.675 160.017C70.7456 159.687 70.7285 159.362 70.6236 159.042L69.7007 156.224L65.8395 160.576C65.6351 160.844 65.3715 161.031 65.0488 161.137C64.7265 161.242 64.4037 161.247 64.0803 161.152L58.3925 159.926L59.3155 162.745C59.4203 163.065 59.5986 163.337 59.8503 163.561C60.1021 163.785 60.3837 163.926 60.6953 163.985L65.3173 164.93C65.6293 164.998 65.9453 164.979 66.2655 164.874C66.5853 164.77 66.8556 164.596 67.0765 164.354ZM74.4534 143.547L82.133 167.001C82.4499 167.969 82.3767 168.91 81.9133 169.824C81.45 170.739 80.7344 171.354 79.7667 171.671L70.1089 174.834C69.8004 174.935 69.5075 174.915 69.2303 174.774C68.9532 174.633 68.764 174.409 68.6629 174.1C68.5617 173.791 68.5815 173.498 68.7221 173.222C68.8627 172.945 69.0872 172.757 69.3958 172.656L79.0536 169.493C79.4445 169.365 79.7247 169.135 79.894 168.801C80.0628 168.467 80.0832 168.105 79.9552 167.714L72.2755 144.26C72.1475 143.869 71.9167 143.589 71.5831 143.42C71.2493 143.251 70.887 143.231 70.496 143.359L38.3309 153.891C37.9399 154.019 37.6598 154.25 37.4905 154.583C37.3217 154.917 37.3013 155.279 37.4293 155.67L37.7693 156.709C37.8703 157.017 37.8505 157.31 37.7097 157.587C37.569 157.864 37.3442 158.054 37.0353 158.155C36.7264 158.256 36.4338 158.236 36.1574 158.096C35.8811 157.955 35.6924 157.73 35.5914 157.422L35.2514 156.384C34.9346 155.416 35.0078 154.475 35.4712 153.56C35.9345 152.646 36.65 152.03 37.6177 151.713L69.7829 141.181C70.7506 140.864 71.6917 140.937 72.6063 141.401C73.5208 141.864 74.1365 142.579 74.4534 143.547ZM54.5463 179.929C54.2497 180.027 53.9617 180.007 53.6822 179.872C53.403 179.736 53.1874 179.526 53.0357 179.241C52.0916 177.142 50.5856 175.586 48.5177 174.572C46.45 173.558 44.2719 173.282 41.9835 173.743C41.6762 173.804 41.4015 173.748 41.1595 173.576C40.9175 173.404 40.749 173.173 40.6539 172.883C40.5529 172.574 40.5841 172.278 40.7476 171.994C40.9114 171.71 41.1473 171.543 41.4552 171.491C44.3126 170.852 47.0292 171.187 49.6049 172.496C52.1802 173.804 54.0456 175.802 55.2013 178.491C55.3447 178.778 55.35 179.063 55.2174 179.348C55.085 179.632 54.8614 179.826 54.5463 179.929ZM62.7629 177.239C62.425 177.35 62.1164 177.307 61.8372 177.111C61.5583 176.915 61.3367 176.641 61.1723 176.29C59.3924 172.007 56.4469 168.835 52.3359 166.774C48.2249 164.713 43.9128 164.268 39.3997 165.44C39.0926 165.522 38.8006 165.488 38.5237 165.337C38.2473 165.186 38.0615 164.965 37.9663 164.675C37.865 164.365 37.8935 164.068 38.0517 163.781C38.2097 163.494 38.4519 163.307 38.7783 163.218C43.9034 161.846 48.8093 162.35 53.496 164.729C58.1827 167.108 61.497 170.767 63.4387 175.705C63.566 176.038 63.5624 176.351 63.4277 176.646C63.293 176.94 63.0714 177.138 62.7629 177.239ZM45.7977 182.794C45.3164 182.952 44.856 182.918 44.4164 182.694C43.9765 182.47 43.6778 182.117 43.5202 181.636C43.3624 181.154 43.3957 180.694 43.6199 180.254C43.844 179.814 44.1967 179.516 44.678 179.358C45.1597 179.2 45.6203 179.234 46.0599 179.458C46.4998 179.682 46.7986 180.035 46.9563 180.516C47.1139 180.998 47.0806 181.458 46.8564 181.898C46.6323 182.338 46.2794 182.636 45.7977 182.794Z" fill="white"/>
</g>
</g>
<rect x="12.5" y="12.5" width="1888" height="182" rx="5.5" stroke="white"/>
<path opacity="0.4" d="M747.428 183C746.408 183 745.582 182.697 744.949 182.09C744.316 181.483 744 180.69 744 179.712V168.288C744 167.31 744.316 166.517 744.949 165.91C745.582 165.303 746.408 165 747.428 165H759.338C760.359 165 761.185 165.303 761.818 165.91C762.451 166.517 762.767 167.31 762.767 168.288V179.712C762.767 180.69 762.451 181.483 761.818 182.09C761.185 182.697 760.359 183 759.338 183H747.428ZM745.564 179.141C746.711 178.433 747.936 177.88 749.239 177.482C750.542 177.084 751.924 176.885 753.383 176.885C754.843 176.885 756.225 177.084 757.528 177.482C758.831 177.88 760.056 178.433 761.203 179.141V168.288C761.203 167.788 761.023 167.365 760.662 167.019C760.301 166.673 759.86 166.5 759.338 166.5H747.428C746.907 166.5 746.466 166.673 746.105 167.019C745.744 167.365 745.564 167.788 745.564 168.288V179.141ZM753.383 178.385C752.174 178.385 750.961 178.562 749.744 178.918C748.527 179.274 747.362 179.817 746.25 180.548C746.31 180.856 746.505 181.091 746.836 181.255C747.167 181.418 747.503 181.5 747.844 181.5H758.923C759.284 181.5 759.62 181.418 759.931 181.255C760.241 181.091 760.487 180.856 760.668 180.548C759.575 179.875 758.405 179.346 757.158 178.962C755.911 178.577 754.653 178.385 753.383 178.385ZM753.383 175.413C752.331 175.413 751.431 175.055 750.684 174.339C749.937 173.623 749.564 172.76 749.564 171.75C749.564 170.74 749.937 169.878 750.684 169.161C751.431 168.445 752.331 168.087 753.383 168.087C754.436 168.087 755.336 168.445 756.083 169.161C756.83 169.878 757.203 170.74 757.203 171.75C757.203 172.76 756.83 173.623 756.083 174.339C755.336 175.055 754.436 175.413 753.383 175.413ZM753.383 173.965C754.015 173.965 754.558 173.748 755.012 173.312C755.466 172.876 755.693 172.356 755.693 171.75C755.693 171.144 755.466 170.624 755.012 170.188C754.558 169.752 754.015 169.534 753.383 169.534C752.752 169.534 752.209 169.752 751.755 170.188C751.301 170.624 751.074 171.144 751.074 171.75C751.074 172.356 751.301 172.876 751.755 173.312C752.209 173.748 752.752 173.965 753.383 173.965ZM767.82 183V165H769.383V183H767.82ZM774.436 183V165H776V183H774.436Z" fill="#FAFDFF"/>
<defs>
<filter id="filter0_f_772_34001" x="-50.0077" y="-44.5734" width="1590.01" height="1010.79" filterUnits="userSpaceOnUse" color-interpolation-filters="sRGB">
<feFlood flood-opacity="0" result="BackgroundImageFix"/>
<feBlend mode="normal" in="SourceGraphic" in2="BackgroundImageFix" result="shape"/>
<feGaussianBlur stdDeviation="70.2473" result="effect1_foregroundBlur_772_34001"/>
</filter>
<clipPath id="clip0_772_34001">
<rect x="12" y="12" width="1889" height="183" rx="6" fill="white"/>
</clipPath>
<clipPath id="clip1_772_34001">
<rect width="55" height="55" fill="white" transform="translate(24 144.115) rotate(-18.1306)"/>
</clipPath>
</defs>
</svg>
